<?xml version="1.0" encoding="UTF-8" standalone="no"?>
<!-- Created with Inkscape (http://www.inkscape.org/) -->

<svg
   xmlns:dc="http://purl.org/dc/elements/1.1/"
   xmlns:cc="http://creativecommons.org/ns#"
   xmlns:rdf="http://www.w3.org/1999/02/22-rdf-syntax-ns#"
   xmlns:svg="http://www.w3.org/2000/svg"
   xmlns="http://www.w3.org/2000/svg"
   xmlns:sodipodi="http://sodipodi.sourceforge.net/DTD/sodipodi-0.dtd"
   xmlns:inkscape="http://www.inkscape.org/namespaces/inkscape"
   width="185.04675mm"
   height="78.936142mm"
   viewBox="0 0 185.04676 78.936139"
   version="1.1"
   id="svg8"
   inkscape:version="0.92.5 (2060ec1f9f, 2020-04-08)"
   sodipodi:docname="point-to-site-outline.svg">
  <defs
     id="defs2">
    <marker
       inkscape:isstock="true"
       style="overflow:visible"
       id="marker4130"
       refX="0"
       refY="0"
       orient="auto"
       inkscape:stockid="Arrow1Send">
      <path
         transform="matrix(-0.2,0,0,-0.2,-1.2,0)"
         style="fill:#000000;fill-opacity:1;fill-rule:evenodd;stroke:#000000;stroke-width:1.00000003pt;stroke-opacity:1"
         d="M 0,0 5,-5 -12.5,0 5,5 Z"
         id="path4128"
         inkscape:connector-curvature="0" />
    </marker>
    <marker
       inkscape:isstock="true"
       style="overflow:visible"
       id="marker4070"
       refX="0"
       refY="0"
       orient="auto"
       inkscape:stockid="Arrow1Send">
      <path
         transform="matrix(-0.2,0,0,-0.2,-1.2,0)"
         style="fill:#000000;fill-opacity:1;fill-rule:evenodd;stroke:#000000;stroke-width:1.00000003pt;stroke-opacity:1"
         d="M 0,0 5,-5 -12.5,0 5,5 Z"
         id="path4068"
         inkscape:connector-curvature="0" />
    </marker>
    <marker
       inkscape:isstock="true"
       style="overflow:visible"
       id="marker4010"
       refX="0"
       refY="0"
       orient="auto"
       inkscape:stockid="Arrow1Send">
      <path
         transform="matrix(-0.2,0,0,-0.2,-1.2,0)"
         style="fill:#000000;fill-opacity:1;fill-rule:evenodd;stroke:#000000;stroke-width:1.00000003pt;stroke-opacity:1"
         d="M 0,0 5,-5 -12.5,0 5,5 Z"
         id="path4008"
         inkscape:connector-curvature="0" />
    </marker>
    <marker
       inkscape:stockid="Arrow1Sstart"
       orient="auto"
       refY="0"
       refX="0"
       id="Arrow1Sstart"
       style="overflow:visible"
       inkscape:isstock="true">
      <path
         id="path3574"
         d="M 0,0 5,-5 -12.5,0 5,5 Z"
         style="fill:#004477;fill-opacity:1;fill-rule:evenodd;stroke:#004477;stroke-width:1.00000003pt;stroke-opacity:1"
         transform="matrix(0.2,0,0,0.2,1.2,0)"
         inkscape:connector-curvature="0" />
    </marker>
    <marker
       inkscape:stockid="Arrow2Mend"
       orient="auto"
       refY="0"
       refX="0"
       id="marker3414"
       style="overflow:visible"
       inkscape:isstock="true">
      <path
         id="path3412"
         style="fill:#000000;fill-opacity:1;fill-rule:evenodd;stroke:#000000;stroke-width:0.625;stroke-linejoin:round;stroke-opacity:1"
         d="M 8.7185878,4.0337352 -2.2072895,0.01601326 8.7185884,-4.0017078 c -1.7454984,2.3720609 -1.7354408,5.6174519 -6e-7,8.035443 z"
         transform="scale(-0.6)"
         inkscape:connector-curvature="0" />
    </marker>
    <marker
       inkscape:isstock="true"
       style="overflow:visible"
       id="marker3308"
       refX="0"
       refY="0"
       orient="auto"
       inkscape:stockid="Arrow2Send">
      <path
         inkscape:connector-curvature="0"
         transform="matrix(-0.3,0,0,-0.3,0.69,0)"
         d="M 8.7185878,4.0337352 -2.2072895,0.01601326 8.7185884,-4.0017078 c -1.7454984,2.3720609 -1.7354408,5.6174519 -6e-7,8.035443 z"
         style="fill:#004477;fill-opacity:1;fill-rule:evenodd;stroke:#004477;stroke-width:0.625;stroke-linejoin:round;stroke-opacity:1"
         id="path3306" />
    </marker>
    <marker
       inkscape:stockid="Arrow2Sstart"
       orient="auto"
       refY="0"
       refX="0"
       id="marker15859"
       style="overflow:visible"
       inkscape:isstock="true">
      <path
         id="path15857"
         style="fill:#004477;fill-opacity:1;fill-rule:evenodd;stroke:#004477;stroke-width:0.625;stroke-linejoin:round;stroke-opacity:1"
         d="M 8.7185878,4.0337352 -2.2072895,0.01601326 8.7185884,-4.0017078 c -1.7454984,2.3720609 -1.7354408,5.6174519 -6e-7,8.035443 z"
         transform="matrix(0.3,0,0,0.3,-0.69,0)"
         inkscape:connector-curvature="0" />
    </marker>
    <marker
       inkscape:stockid="Arrow2Sstart"
       orient="auto"
       refY="0"
       refX="0"
       id="Arrow2Sstart"
       style="overflow:visible"
       inkscape:isstock="true">
      <path
         id="path5925"
         style="fill:#004477;fill-opacity:1;fill-rule:evenodd;stroke:#004477;stroke-width:0.625;stroke-linejoin:round;stroke-opacity:1"
         d="M 8.7185878,4.0337352 -2.2072895,0.01601326 8.7185884,-4.0017078 c -1.7454984,2.3720609 -1.7354408,5.6174519 -6e-7,8.035443 z"
         transform="matrix(0.3,0,0,0.3,-0.69,0)"
         inkscape:connector-curvature="0" />
    </marker>
    <marker
       inkscape:stockid="Arrow1Send"
       orient="auto"
       refY="0"
       refX="0"
       id="marker6839"
       style="overflow:visible"
       inkscape:isstock="true">
      <path
         id="path6837"
         d="M 0,0 5,-5 -12.5,0 5,5 Z"
         style="fill:#881111;fill-opacity:1;fill-rule:evenodd;stroke:#881111;stroke-width:1.00000003pt;stroke-opacity:1"
         transform="matrix(-0.2,0,0,-0.2,-1.2,0)"
         inkscape:connector-curvature="0" />
    </marker>
    <marker
       inkscape:stockid="Arrow1Send"
       orient="auto"
       refY="0"
       refX="0"
       id="Arrow1Send"
       style="overflow:visible"
       inkscape:isstock="true">
      <path
         id="path5910"
         d="M 0,0 5,-5 -12.5,0 5,5 Z"
         style="fill:#000000;fill-opacity:1;fill-rule:evenodd;stroke:#000000;stroke-width:1.00000003pt;stroke-opacity:1"
         transform="matrix(-0.2,0,0,-0.2,-1.2,0)"
         inkscape:connector-curvature="0" />
    </marker>
    <marker
       inkscape:stockid="Arrow1Lend"
       orient="auto"
       refY="0"
       refX="0"
       id="Arrow1Lend"
       style="overflow:visible"
       inkscape:isstock="true">
      <path
         id="path5898"
         d="M 0,0 5,-5 -12.5,0 5,5 Z"
         style="fill:#000000;fill-opacity:1;fill-rule:evenodd;stroke:#000000;stroke-width:1.00000003pt;stroke-opacity:1"
         transform="matrix(-0.8,0,0,-0.8,-10,0)"
         inkscape:connector-curvature="0" />
    </marker>
    <marker
       inkscape:stockid="Arrow1Send"
       orient="auto"
       refY="0"
       refX="0"
       id="marker6839-1"
       style="overflow:visible"
       inkscape:isstock="true">
      <path
         inkscape:connector-curvature="0"
         id="path6837-0"
         d="M 0,0 5,-5 -12.5,0 5,5 Z"
         style="fill:#881111;fill-opacity:1;fill-rule:evenodd;stroke:#881111;stroke-width:1.00000003pt;stroke-opacity:1"
         transform="matrix(-0.2,0,0,-0.2,-1.2,0)" />
    </marker>
    <marker
       inkscape:stockid="Arrow1Send"
       orient="auto"
       refY="0"
       refX="0"
       id="marker6839-1-4"
       style="overflow:visible"
       inkscape:isstock="true">
      <path
         inkscape:connector-curvature="0"
         id="path6837-0-0"
         d="M 0,0 5,-5 -12.5,0 5,5 Z"
         style="fill:#881111;fill-opacity:1;fill-rule:evenodd;stroke:#881111;stroke-width:1.00000003pt;stroke-opacity:1"
         transform="matrix(-0.2,0,0,-0.2,-1.2,0)" />
    </marker>
    <marker
       inkscape:stockid="Arrow1Send"
       orient="auto"
       refY="0"
       refX="0"
       id="marker6839-1-9"
       style="overflow:visible"
       inkscape:isstock="true">
      <path
         inkscape:connector-curvature="0"
         id="path6837-0-1"
         d="M 0,0 5,-5 -12.5,0 5,5 Z"
         style="fill:#000000;fill-opacity:1;fill-rule:evenodd;stroke:#000000;stroke-width:1.00000003pt;stroke-opacity:1"
         transform="matrix(-0.2,0,0,-0.2,-1.2,0)" />
    </marker>
    <marker
       inkscape:stockid="Arrow1Send"
       orient="auto"
       refY="0"
       refX="0"
       id="marker6839-1-9-6"
       style="overflow:visible"
       inkscape:isstock="true">
      <path
         inkscape:connector-curvature="0"
         id="path6837-0-1-9"
         d="M 0,0 5,-5 -12.5,0 5,5 Z"
         style="fill:#000000;fill-opacity:1;fill-rule:evenodd;stroke:#000000;stroke-width:1.00000003pt;stroke-opacity:1"
         transform="matrix(-0.2,0,0,-0.2,-1.2,0)" />
    </marker>
  </defs>
  <sodipodi:namedview
     id="base"
     pagecolor="#ffffff"
     bordercolor="#666666"
     borderopacity="1.0"
     inkscape:pageopacity="0.0"
     inkscape:pageshadow="2"
     inkscape:zoom="1"
     inkscape:cx="297.99499"
     inkscape:cy="106.05016"
     inkscape:document-units="mm"
     inkscape:current-layer="layer5"
     showgrid="false"
     inkscape:window-width="1916"
     inkscape:window-height="1056"
     inkscape:window-x="1920"
     inkscape:window-y="20"
     inkscape:window-maximized="0"
     objecttolerance="3"
     fit-margin-top="5"
     fit-margin-right="5"
     fit-margin-bottom="5"
     fit-margin-left="5" />
  <metadata
     id="metadata5">
    <rdf:RDF>
      <cc:Work
         rdf:about="">
        <dc:format>image/svg+xml</dc:format>
        <dc:type
           rdf:resource="http://purl.org/dc/dcmitype/StillImage" />
        <dc:title></dc:title>
      </cc:Work>
    </rdf:RDF>
  </metadata>
  <g
     inkscape:groupmode="layer"
     id="layer5"
     inkscape:label="site a"
     style="display:inline"
     transform="translate(0.12078531,-21.092408)">
    <path
       style="display:none;opacity:1;fill:#f7f7f7;fill-opacity:1;stroke:#999999;stroke-width:1;stroke-miterlimit:4;stroke-dasharray:none;stroke-opacity:1"
       d="M 13.944395,32.532452 A 12.621267,13.101873 0 0 0 1.6703682,42.642526 12.621267,13.101873 0 0 0 -8.4132868,37.398862 12.621267,13.101873 0 0 0 -21.034547,50.500738 a 12.621267,13.101873 0 0 0 3.838487,9.38991 12.621267,13.101873 0 0 0 -6.723348,11.573068 12.621267,13.101873 0 0 0 12.621263,13.101881 12.621267,13.101873 0 0 0 5.0738752,-1.123016 12.621267,13.101873 0 0 0 12.59591,12.35319 12.621267,13.101873 0 0 0 10.4139648,-5.700625 12.621267,13.101873 0 0 0 10.140669,5.326287 12.621267,13.101873 0 0 0 12.518441,-11.522631 12.621267,13.101873 0 0 0 2.627079,0.292455 12.621267,13.101873 0 0 0 12.621281,-13.101863 12.621267,13.101873 0 0 0 -8.91096,-12.522099 12.621267,13.101873 0 0 0 2.42002,-7.69223 12.621267,13.101873 0 0 0 -12.621279,-13.101876 12.621267,13.101873 0 0 0 -9.456798,4.442365 12.621267,13.101873 0 0 0 -12.179663,-9.683102 z"
       id="path4520-6"
       inkscape:connector-curvature="0"
       inkscape:label="cloud" />
    <g
       style="display:inline"
       id="g3036"
       inkscape:label="tablet"
       transform="matrix(0.65,0,0,0.65,-38.611978,8.7966678)">
      <rect
         y="64.951248"
         x="67.358177"
         height="44.529377"
         width="33.813751"
         id="rect4601-4-9"
         style="opacity:1;fill:#eeeeee;fill-opacity:1;stroke:#000000;stroke-width:0.89729995;stroke-miterlimit:4;stroke-dasharray:none;stroke-opacity:1" />
      <rect
         y="68.463608"
         x="70.374428"
         height="37.107815"
         width="28.178127"
         id="rect4601-8-4"
         style="opacity:1;fill:#f2f2f2;fill-opacity:1;stroke:#000000;stroke-width:0.74774998;stroke-miterlimit:4;stroke-dasharray:none;stroke-opacity:1" />
    </g>
    <g
       style="display:inline"
       id="g5569-8-9-1"
       transform="matrix(0.52500001,0,0,0.52500001,-51.483558,-15.070102)"
       inkscape:label="wg0">
      <circle
         style="display:inline;opacity:1;fill:#c1eaff;fill-opacity:1;stroke:#003964;stroke-width:0.5625;stroke-linecap:butt;stroke-linejoin:round;stroke-miterlimit:4;stroke-dasharray:none;stroke-dashoffset:0;stroke-opacity:1"
         id="path5124-4-8-6-3-0"
         cx="133.34999"
         cy="147.77501"
         r="9.823638"
         inkscape:label="wg0" />
      <g
         aria-label="wg0"
         transform="matrix(0.26458333,0,0,0.26458333,-1.5875,1.5875)"
         style="font-style:normal;font-variant:normal;font-weight:normal;font-stretch:normal;font-size:26.66666794px;line-height:1.25;font-family:'Proza Libre';-inkscape-font-specification:'Proza Libre, Normal';font-variant-ligatures:normal;font-variant-caps:normal;font-variant-numeric:normal;font-feature-settings:normal;text-align:start;letter-spacing:0px;word-spacing:0px;writing-mode:lr-tb;text-anchor:start;fill:#004477;fill-opacity:1;stroke:none"
         id="flowRoot5556-0-6-5">
        <path
           d="m 485.64583,546.0875 2.52605,9.66146 0.39062,2.1875 h 0.26042 l 0.44271,-2.16146 2.76041,-9.27083 h 2.82552 l 2.73438,9.24479 0.46875,2.1875 h 0.26041 l 0.41667,-2.16146 2.55209,-9.6875 h 2.5 l -4.37501,13.80208 h -2.72135 l -2.63021,-8.54166 -0.59896,-2.39584 h -0.26041 l -0.59896,2.39584 -2.68229,8.54166 h -2.70834 l -4.29687,-13.80208 z"
           style="font-style:normal;font-variant:normal;font-weight:normal;font-stretch:normal;font-size:26.66666794px;font-family:'Proza Libre';-inkscape-font-specification:'Proza Libre, Normal';font-variant-ligatures:normal;font-variant-caps:normal;font-variant-numeric:normal;font-feature-settings:normal;text-align:start;writing-mode:lr-tb;text-anchor:start;fill:#004477;fill-opacity:1"
           id="path1351-8-1"
           inkscape:connector-curvature="0" />
        <path
           d="m 510.42448,560.67083 q -0.33854,0.16928 -0.72917,0.41667 -0.3776,0.2474 -0.70312,0.54688 -0.32552,0.3125 -0.54688,0.67708 -0.22135,0.3776 -0.22135,0.78125 0,0.41667 0.24739,0.78125 0.26042,0.3776 0.74219,0.65104 0.49479,0.27344 1.21094,0.42969 0.71615,0.16927 1.64063,0.16927 1.05468,0 1.88802,-0.20833 0.83333,-0.20834 1.40625,-0.57292 0.57291,-0.36458 0.87239,-0.84635 0.29948,-0.46875 0.29948,-1.00261 0,-0.48177 -0.23437,-0.83333 -0.23438,-0.33854 -0.63802,-0.5599 -0.39063,-0.22135 -0.92448,-0.32552 -0.52084,-0.10417 -1.09375,-0.10417 z m -1.78385,-0.26041 q -0.40365,-0.13021 -0.75521,-0.32552 -0.35157,-0.19532 -0.61198,-0.42969 -0.26042,-0.2474 -0.41667,-0.54688 -0.14323,-0.3125 -0.14323,-0.66406 0,-0.42969 0.20834,-0.80729 0.22135,-0.39062 0.55989,-0.74219 0.35156,-0.36458 0.78125,-0.67708 0.44271,-0.32552 0.89844,-0.625 -1.44531,-0.70313 -2.1224,-1.84896 -0.66406,-1.14583 -0.66406,-2.48698 0,-0.83333 0.23438,-1.5625 0.24739,-0.72916 0.67708,-1.32812 0.42969,-0.61198 1.0026,-1.08073 0.57292,-0.46875 1.23698,-0.79427 0.66407,-0.32552 1.38021,-0.4948 0.72917,-0.16927 1.44531,-0.16927 0.85938,0 1.66667,0.22136 0.80729,0.22135 1.35417,0.57291 0.20833,-0.11718 0.50781,-0.22135 0.3125,-0.10417 0.65104,-0.16927 0.33854,-0.0651 0.67708,-0.10417 0.35157,-0.0391 0.65105,-0.0391 h 2.34375 l -0.52084,1.95313 h -3.07291 q 0.0911,0.0521 0.26041,0.29948 0.18229,0.23437 0.35157,0.625 0.18229,0.3776 0.3125,0.88541 0.14322,0.50781 0.14322,1.08073 0,1.05469 -0.50781,1.99219 -0.49479,0.92448 -1.3151,1.61458 -0.80729,0.69011 -1.86198,1.09375 -1.04167,0.40365 -2.13542,0.40365 -0.28646,0 -0.57291,-0.026 -0.28646,-0.026 -0.61198,-0.0651 -0.23438,0.14323 -0.50782,0.32552 -0.26041,0.18229 -0.48177,0.40365 -0.20833,0.20833 -0.35156,0.45573 -0.14323,0.23437 -0.14323,0.49479 0,0.41667 0.37761,0.67708 0.39062,0.26042 1.05468,0.26042 h 3.6849 q 0.9375,0 1.77083,0.2474 0.83334,0.23437 1.44531,0.6901 0.625,0.44271 0.98959,1.06771 0.36458,0.625 0.36458,1.38021 0,0.88541 -0.50781,1.79687 -0.50781,0.92448 -1.47136,1.67969 -0.96354,0.75521 -2.36979,1.22396 -1.39323,0.48177 -3.1901,0.48177 -1.1849,0 -2.21354,-0.22136 -1.01563,-0.22135 -1.77084,-0.625 -0.74218,-0.40364 -1.17187,-0.97656 -0.42969,-0.57291 -0.42969,-1.27604 0,-0.42969 0.15625,-0.83333 0.16927,-0.40365 0.41667,-0.75521 0.26041,-0.35156 0.57291,-0.66406 0.32552,-0.3125 0.63802,-0.57292 0.32553,-0.2474 0.61198,-0.45573 0.29948,-0.19531 0.4948,-0.33854 z m 0.0781,-9.55729 q 0,0.70312 0.2474,1.3151 0.24739,0.61198 0.67708,1.06771 0.44271,0.44271 1.05469,0.70312 0.61198,0.2474 1.34114,0.2474 0.69011,0 1.28907,-0.23438 0.59895,-0.23437 1.04166,-0.65104 0.45573,-0.41666 0.70313,-1.0026 0.26041,-0.59896 0.26041,-1.32813 0,-0.70312 -0.24739,-1.30208 -0.2474,-0.61198 -0.69011,-1.04167 -0.4427,-0.4427 -1.05468,-0.6901 -0.61198,-0.26042 -1.34115,-0.26042 -0.6901,0 -1.28906,0.23438 -0.58594,0.22135 -1.04167,0.63802 -0.44271,0.40364 -0.70312,1.0026 -0.2474,0.58594 -0.2474,1.30209 z"
           style="font-style:normal;font-variant:normal;font-weight:normal;font-stretch:normal;font-size:26.66666794px;font-family:'Proza Libre';-inkscape-font-specification:'Proza Libre, Normal';font-variant-ligatures:normal;font-variant-caps:normal;font-variant-numeric:normal;font-feature-settings:normal;text-align:start;writing-mode:lr-tb;text-anchor:start;fill:#004477;fill-opacity:1"
           id="path1353-0-1"
           inkscape:connector-curvature="0" />
        <path
           d="m 535.04688,550.47552 q 0,-1.86198 -0.36459,-3.33333 -0.36458,-1.47136 -1.02864,-2.48698 -0.65105,-1.01563 -1.57552,-1.54948 -0.91146,-0.53385 -2.03125,-0.53385 -1.05469,0 -1.95313,0.49479 -0.88542,0.48177 -1.53646,1.44531 -0.63802,0.95052 -1.0026,2.36979 -0.36459,1.41927 -0.36459,3.28125 0,1.86198 0.36459,3.34636 0.36458,1.47135 1.02864,2.5 0.66407,1.02864 1.58855,1.57552 0.92447,0.54687 2.04427,0.54687 1.05468,0 1.9401,-0.49479 0.89844,-0.50781 1.53646,-1.47135 0.63802,-0.97657 0.98958,-2.39584 0.36459,-1.43229 0.36459,-3.29427 z m 2.68229,-0.49479 q 0,1.51042 -0.28646,2.85156 -0.27344,1.34115 -0.79427,2.47396 -0.50781,1.11979 -1.23698,2.03125 -0.71615,0.89844 -1.60156,1.52344 -0.88542,0.625 -1.91407,0.96354 -1.02864,0.32552 -2.13541,0.32552 -1.64063,0 -2.98177,-0.70312 -1.32813,-0.70313 -2.27865,-1.96615 -0.95052,-1.26302 -1.47135,-2.99479 -0.50782,-1.73177 -0.50782,-3.78906 0,-2.29167 0.625,-4.15365 0.625,-1.875 1.69271,-3.20313 1.08073,-1.32812 2.52604,-2.05729 1.44532,-0.72916 3.09896,-0.72916 1.62761,0 2.96875,0.70312 1.34115,0.70313 2.29167,1.95313 0.96354,1.25 1.48437,2.98177 0.52084,1.73177 0.52084,3.78906 z"
           style="font-style:normal;font-variant:normal;font-weight:normal;font-stretch:normal;font-size:26.66666794px;font-family:'Proza Libre';-inkscape-font-specification:'Proza Libre, Normal';font-variant-ligatures:normal;font-variant-caps:normal;font-variant-numeric:normal;font-feature-settings:normal;text-align:start;writing-mode:lr-tb;text-anchor:start;fill:#004477;fill-opacity:1"
           id="path1355-2-0"
           inkscape:connector-curvature="0" />
      </g>
    </g>
    <g
       aria-label="Site A"
       transform="matrix(0.26458333,0,0,0.26458333,-71.971178,-28.477706)"
       style="font-style:normal;font-variant:normal;font-weight:normal;font-stretch:normal;font-size:16px;line-height:1.25;font-family:'Proza Libre';-inkscape-font-specification:'Proza Libre, Normal';font-variant-ligatures:normal;font-variant-caps:normal;font-variant-numeric:normal;font-feature-settings:normal;text-align:start;letter-spacing:0px;word-spacing:0px;writing-mode:lr-tb;text-anchor:start;display:none;fill:#000000;fill-opacity:1;stroke:none"
       id="flowRoot2943-4-6-8">
      <path
         d="m 241.24219,231.70523 q 0.51562,0 0.95312,-0.13281 0.4375,-0.14062 0.75,-0.39062 0.3125,-0.25782 0.48438,-0.60938 0.17968,-0.35156 0.17968,-0.78125 0,-0.50781 -0.24218,-0.85937 -0.23438,-0.35157 -0.625,-0.61719 -0.38282,-0.26563 -0.88282,-0.46875 -0.5,-0.21094 -1.01562,-0.42188 -0.51563,-0.21875 -1.01563,-0.46875 -0.5,-0.25 -0.89062,-0.60937 -0.38281,-0.35938 -0.625,-0.84375 -0.23438,-0.49219 -0.23438,-1.1875 0,-0.73438 0.28125,-1.32031 0.28125,-0.58594 0.78125,-0.99219 0.50782,-0.41406 1.19532,-0.625 0.69531,-0.21875 1.52343,-0.21875 0.50782,0 1.27344,0.10156 0.76563,0.0937 1.625,0.35156 l -0.25781,1.35938 -0.15625,0.0781 q -0.42969,-0.19531 -0.83594,-0.32812 -0.40625,-0.13281 -0.76562,-0.21094 -0.35938,-0.0781 -0.66407,-0.10937 -0.30468,-0.0312 -0.53125,-0.0312 -0.46093,0 -0.83593,0.11718 -0.36719,0.10938 -0.63282,0.32813 -0.25781,0.21094 -0.40625,0.52344 -0.14062,0.30468 -0.14062,0.69531 0,0.52344 0.23437,0.89062 0.24219,0.36719 0.63282,0.64844 0.39843,0.28125 0.89843,0.5 0.5,0.21875 1.01563,0.4375 0.52344,0.21875 1.02344,0.46875 0.5,0.25 0.89062,0.58594 0.39844,0.32812 0.63281,0.78125 0.24219,0.45312 0.24219,1.08594 0,0.69531 -0.30469,1.32812 -0.29687,0.625 -0.84375,1.10938 -0.53906,0.47656 -1.30468,0.76562 -0.75782,0.28125 -1.67969,0.28125 -0.39063,0 -0.82031,-0.0547 -0.42188,-0.0547 -0.85157,-0.14843 -0.42968,-0.10157 -0.85156,-0.24219 -0.41406,-0.14063 -0.78906,-0.3125 l 0.26562,-1.36719 0.15625,-0.0781 q 0.79688,0.46093 1.60938,0.72656 0.82031,0.26562 1.55469,0.26562 z"
         id="path20443"
         inkscape:connector-curvature="0" />
      <path
         d="m 247.625,224.47867 h 1.48437 v 8.28125 H 247.625 Z m 0.75,-1.79687 q -0.19531,0 -0.36719,-0.0703 -0.17187,-0.0703 -0.29687,-0.19531 -0.125,-0.125 -0.19532,-0.28906 -0.0703,-0.17188 -0.0703,-0.375 0,-0.20313 0.0781,-0.38281 0.0781,-0.17969 0.20312,-0.3125 0.13281,-0.13282 0.30469,-0.20313 0.17969,-0.0781 0.375,-0.0781 0.1875,0 0.35156,0.0781 0.17188,0.0703 0.29688,0.20313 0.125,0.13281 0.19531,0.3125 0.0703,0.17187 0.0703,0.36718 0,0.21094 -0.0781,0.39063 -0.0781,0.17187 -0.21094,0.29687 -0.125,0.11719 -0.29688,0.1875 -0.17187,0.0703 -0.35937,0.0703 z"
         id="path20445"
         inkscape:connector-curvature="0" />
      <path
         d="m 252.60937,225.66617 h -1.67187 l 0.125,-0.76562 q 0.60937,-0.125 0.97656,-0.3125 0.36719,-0.19532 0.60156,-0.48438 0.24219,-0.28906 0.39844,-0.69531 0.16406,-0.41406 0.36719,-0.98438 h 0.6875 v 2.05469 h 3 l -0.3125,1.1875 h -2.6875 v 4.625 q 0,0.375 0.10937,0.64063 0.11719,0.25781 0.32032,0.42187 0.20312,0.16406 0.49218,0.24219 0.28907,0.0703 0.64063,0.0703 0.35937,0 0.71094,-0.0625 0.35937,-0.0703 0.67968,-0.1875 v 0.84375 q -0.49218,0.32031 -1.03906,0.49219 -0.53906,0.16406 -1.10156,0.16406 -0.52344,0 -0.94531,-0.14844 -0.42188,-0.14843 -0.72657,-0.42968 -0.29687,-0.28125 -0.46093,-0.69532 -0.16407,-0.42187 -0.16407,-0.96093 z"
         id="path20447"
         inkscape:connector-curvature="0" />
      <path
         d="m 265.66406,232.0568 q -0.29687,0.21093 -0.6875,0.375 -0.38281,0.15625 -0.79687,0.26562 -0.41407,0.10938 -0.83594,0.16406 -0.41406,0.0547 -0.77344,0.0547 -0.79687,0 -1.51562,-0.26562 -0.71875,-0.26563 -1.25782,-0.78125 -0.53906,-0.51563 -0.85937,-1.27344 -0.32031,-0.76563 -0.32031,-1.75781 0,-1.02344 0.33593,-1.85938 0.34375,-0.83594 0.91407,-1.42187 0.57031,-0.59375 1.3125,-0.91407 0.75,-0.32031 1.57031,-0.32031 0.66406,0 1.23437,0.22656 0.57813,0.21875 1,0.66407 0.42969,0.44531 0.67188,1.11718 0.24219,0.66407 0.24219,1.55469 0,0.17969 -0.0156,0.42969 -0.0156,0.25 -0.0625,0.52344 h -5.65625 q 0,0.67187 0.23438,1.20312 0.24218,0.52344 0.67187,0.89063 0.4375,0.35937 1.03906,0.54687 0.60157,0.1875 1.32813,0.1875 0.17969,0 0.4375,-0.0156 0.25781,-0.0156 0.55469,-0.0625 0.29687,-0.0469 0.61718,-0.13282 0.32032,-0.0937 0.61719,-0.24218 z m -1.17187,-4.14063 q 0,-0.58594 -0.16407,-1.03125 -0.16406,-0.45312 -0.44531,-0.75781 -0.28125,-0.30469 -0.65625,-0.46094 -0.36719,-0.15625 -0.78906,-0.15625 -0.46875,0 -0.88281,0.19531 -0.41407,0.1875 -0.72657,0.51563 -0.30468,0.32812 -0.48437,0.76562 -0.17969,0.4375 -0.17969,0.92969 z"
         id="path20449"
         inkscape:connector-curvature="0" />
      <path
         d="M 278.4375,229.65055 H 273.5 l -1.07031,3.10937 h -1.44532 l 4.25782,-11.44531 h 1.625 l 4.26562,11.44531 h -1.60937 z m -0.42969,-1.19532 -1.51562,-4.46875 -0.44532,-1.59375 h -0.15625 l -0.44531,1.59375 -1.53125,4.46875 z"
         id="path20451"
         inkscape:connector-curvature="0" />
    </g>
  </g>
  <g
     inkscape:groupmode="layer"
     id="layer6"
     inkscape:label="site b"
     transform="translate(0.12078531,-21.092408)">
    <path
       style="fill:none;stroke:#000000;stroke-width:0.5;stroke-linecap:butt;stroke-linejoin:miter;stroke-miterlimit:4;stroke-dasharray:none;stroke-opacity:1"
       d="M 133.08526,81.581249 116.15192,70.204165"
       id="path4988"
       inkscape:connector-curvature="0" />
    <path
       style="fill:none;stroke:#000000;stroke-width:0.5;stroke-linecap:butt;stroke-linejoin:miter;stroke-miterlimit:4;stroke-dasharray:none;stroke-opacity:1"
       d="m 119.32692,54.064579 22.75417,-18.785416 v 0 0"
       id="path4990"
       inkscape:connector-curvature="0" />
    <path
       style="opacity:0.98000004;fill:#eeeeee;fill-opacity:1;stroke:#000000;stroke-width:0.47970062;stroke-linecap:butt;stroke-linejoin:round;stroke-miterlimit:4;stroke-dasharray:none;stroke-dashoffset:0;stroke-opacity:1"
       d="M 108.6113,47.23985 A 10.725775,3.4062765 0 0 0 97.895362,50.5853 h -0.01001 v 0.06083 19.707743 0.182478 h 0.02022 a 10.725775,3.4062765 0 0 0 10.705588,3.223799 10.725775,3.4062765 0 0 0 10.69681,-3.223799 h 0.0289 V 70.353873 50.64613 50.5853 h -0.007 a 10.725775,3.4062765 0 0 0 -10.71904,-3.34545 z"
       id="path3038"
       inkscape:connector-curvature="0"
       inkscape:label="router" />
    <path
       style="display:inline;fill:#eeeeee;fill-opacity:1;stroke:#000000;stroke-width:0.5;stroke-linecap:butt;stroke-linejoin:miter;stroke-miterlimit:4;stroke-dasharray:none;stroke-opacity:1"
       d="m 131.57802,71.586158 h 15.49797 l 5.34789,2.78309 v 20.409299 h -15.49797 l -5.34789,-2.78309 z"
       id="path1358-0-2"
       inkscape:connector-curvature="0"
       inkscape:label="server" />
    <path
       style="display:inline;fill:#eeeeee;fill-opacity:1;stroke:#000000;stroke-width:0.5;stroke-linecap:butt;stroke-linejoin:miter;stroke-miterlimit:4;stroke-dasharray:none;stroke-opacity:1"
       d="m 158.8301,51.477819 h 15.49797 l 5.34789,2.78309 V 74.670208 H 164.178 l -5.3479,-2.78309 z"
       id="path1358-0-24"
       inkscape:connector-curvature="0"
       inkscape:label="server" />
    <path
       style="display:inline;fill:#eeeeee;fill-opacity:1;stroke:#000000;stroke-width:0.5;stroke-linecap:butt;stroke-linejoin:miter;stroke-miterlimit:4;stroke-dasharray:none;stroke-opacity:1"
       d="m 133.4301,26.342408 h 15.49797 l 5.34789,2.78309 V 49.534797 H 138.778 l -5.3479,-2.78309 z"
       id="path1358-0-7"
       inkscape:connector-curvature="0"
       inkscape:label="server" />
    <path
       style="fill:none;stroke:#000000;stroke-width:0.69999999;stroke-linecap:butt;stroke-linejoin:miter;stroke-miterlimit:4;stroke-dasharray:none;stroke-opacity:1;marker-end:url(#marker4130)"
       d="m 119.32692,62.266662 38.89375,0.264584 v 0 0"
       id="path3298"
       inkscape:connector-curvature="0" />
    <g
       id="g5569-8-9"
       transform="matrix(0.52500001,0,0,0.52500001,36.99409,-15.037029)"
       inkscape:label="wg0">
      <circle
         style="display:inline;opacity:1;fill:#c1eaff;fill-opacity:1;stroke:#003964;stroke-width:0.5625;stroke-linecap:butt;stroke-linejoin:round;stroke-miterlimit:4;stroke-dasharray:none;stroke-dashoffset:0;stroke-opacity:1"
         id="path5124-4-8-6-3"
         cx="133.34999"
         cy="147.77501"
         r="9.823638"
         inkscape:label="wg0" />
      <g
         aria-label="wg0"
         transform="matrix(0.26458333,0,0,0.26458333,-1.5875,1.5875)"
         style="font-style:normal;font-variant:normal;font-weight:normal;font-stretch:normal;font-size:26.66666794px;line-height:1.25;font-family:'Proza Libre';-inkscape-font-specification:'Proza Libre, Normal';font-variant-ligatures:normal;font-variant-caps:normal;font-variant-numeric:normal;font-feature-settings:normal;text-align:start;letter-spacing:0px;word-spacing:0px;writing-mode:lr-tb;text-anchor:start;fill:#004477;fill-opacity:1;stroke:none"
         id="flowRoot5556-0-6">
        <path
           d="m 485.64583,546.0875 2.52605,9.66146 0.39062,2.1875 h 0.26042 l 0.44271,-2.16146 2.76041,-9.27083 h 2.82552 l 2.73438,9.24479 0.46875,2.1875 h 0.26041 l 0.41667,-2.16146 2.55209,-9.6875 h 2.5 l -4.37501,13.80208 h -2.72135 l -2.63021,-8.54166 -0.59896,-2.39584 h -0.26041 l -0.59896,2.39584 -2.68229,8.54166 h -2.70834 l -4.29687,-13.80208 z"
           style="font-style:normal;font-variant:normal;font-weight:normal;font-stretch:normal;font-size:26.66666794px;font-family:'Proza Libre';-inkscape-font-specification:'Proza Libre, Normal';font-variant-ligatures:normal;font-variant-caps:normal;font-variant-numeric:normal;font-feature-settings:normal;text-align:start;writing-mode:lr-tb;text-anchor:start;fill:#004477;fill-opacity:1"
           id="path1351-8"
           inkscape:connector-curvature="0" />
        <path
           d="m 510.42448,560.67083 q -0.33854,0.16928 -0.72917,0.41667 -0.3776,0.2474 -0.70312,0.54688 -0.32552,0.3125 -0.54688,0.67708 -0.22135,0.3776 -0.22135,0.78125 0,0.41667 0.24739,0.78125 0.26042,0.3776 0.74219,0.65104 0.49479,0.27344 1.21094,0.42969 0.71615,0.16927 1.64063,0.16927 1.05468,0 1.88802,-0.20833 0.83333,-0.20834 1.40625,-0.57292 0.57291,-0.36458 0.87239,-0.84635 0.29948,-0.46875 0.29948,-1.00261 0,-0.48177 -0.23437,-0.83333 -0.23438,-0.33854 -0.63802,-0.5599 -0.39063,-0.22135 -0.92448,-0.32552 -0.52084,-0.10417 -1.09375,-0.10417 z m -1.78385,-0.26041 q -0.40365,-0.13021 -0.75521,-0.32552 -0.35157,-0.19532 -0.61198,-0.42969 -0.26042,-0.2474 -0.41667,-0.54688 -0.14323,-0.3125 -0.14323,-0.66406 0,-0.42969 0.20834,-0.80729 0.22135,-0.39062 0.55989,-0.74219 0.35156,-0.36458 0.78125,-0.67708 0.44271,-0.32552 0.89844,-0.625 -1.44531,-0.70313 -2.1224,-1.84896 -0.66406,-1.14583 -0.66406,-2.48698 0,-0.83333 0.23438,-1.5625 0.24739,-0.72916 0.67708,-1.32812 0.42969,-0.61198 1.0026,-1.08073 0.57292,-0.46875 1.23698,-0.79427 0.66407,-0.32552 1.38021,-0.4948 0.72917,-0.16927 1.44531,-0.16927 0.85938,0 1.66667,0.22136 0.80729,0.22135 1.35417,0.57291 0.20833,-0.11718 0.50781,-0.22135 0.3125,-0.10417 0.65104,-0.16927 0.33854,-0.0651 0.67708,-0.10417 0.35157,-0.0391 0.65105,-0.0391 h 2.34375 l -0.52084,1.95313 h -3.07291 q 0.0911,0.0521 0.26041,0.29948 0.18229,0.23437 0.35157,0.625 0.18229,0.3776 0.3125,0.88541 0.14322,0.50781 0.14322,1.08073 0,1.05469 -0.50781,1.99219 -0.49479,0.92448 -1.3151,1.61458 -0.80729,0.69011 -1.86198,1.09375 -1.04167,0.40365 -2.13542,0.40365 -0.28646,0 -0.57291,-0.026 -0.28646,-0.026 -0.61198,-0.0651 -0.23438,0.14323 -0.50782,0.32552 -0.26041,0.18229 -0.48177,0.40365 -0.20833,0.20833 -0.35156,0.45573 -0.14323,0.23437 -0.14323,0.49479 0,0.41667 0.37761,0.67708 0.39062,0.26042 1.05468,0.26042 h 3.6849 q 0.9375,0 1.77083,0.2474 0.83334,0.23437 1.44531,0.6901 0.625,0.44271 0.98959,1.06771 0.36458,0.625 0.36458,1.38021 0,0.88541 -0.50781,1.79687 -0.50781,0.92448 -1.47136,1.67969 -0.96354,0.75521 -2.36979,1.22396 -1.39323,0.48177 -3.1901,0.48177 -1.1849,0 -2.21354,-0.22136 -1.01563,-0.22135 -1.77084,-0.625 -0.74218,-0.40364 -1.17187,-0.97656 -0.42969,-0.57291 -0.42969,-1.27604 0,-0.42969 0.15625,-0.83333 0.16927,-0.40365 0.41667,-0.75521 0.26041,-0.35156 0.57291,-0.66406 0.32552,-0.3125 0.63802,-0.57292 0.32553,-0.2474 0.61198,-0.45573 0.29948,-0.19531 0.4948,-0.33854 z m 0.0781,-9.55729 q 0,0.70312 0.2474,1.3151 0.24739,0.61198 0.67708,1.06771 0.44271,0.44271 1.05469,0.70312 0.61198,0.2474 1.34114,0.2474 0.69011,0 1.28907,-0.23438 0.59895,-0.23437 1.04166,-0.65104 0.45573,-0.41666 0.70313,-1.0026 0.26041,-0.59896 0.26041,-1.32813 0,-0.70312 -0.24739,-1.30208 -0.2474,-0.61198 -0.69011,-1.04167 -0.4427,-0.4427 -1.05468,-0.6901 -0.61198,-0.26042 -1.34115,-0.26042 -0.6901,0 -1.28906,0.23438 -0.58594,0.22135 -1.04167,0.63802 -0.44271,0.40364 -0.70312,1.0026 -0.2474,0.58594 -0.2474,1.30209 z"
           style="font-style:normal;font-variant:normal;font-weight:normal;font-stretch:normal;font-size:26.66666794px;font-family:'Proza Libre';-inkscape-font-specification:'Proza Libre, Normal';font-variant-ligatures:normal;font-variant-caps:normal;font-variant-numeric:normal;font-feature-settings:normal;text-align:start;writing-mode:lr-tb;text-anchor:start;fill:#004477;fill-opacity:1"
           id="path1353-0"
           inkscape:connector-curvature="0" />
        <path
           d="m 535.04688,550.47552 q 0,-1.86198 -0.36459,-3.33333 -0.36458,-1.47136 -1.02864,-2.48698 -0.65105,-1.01563 -1.57552,-1.54948 -0.91146,-0.53385 -2.03125,-0.53385 -1.05469,0 -1.95313,0.49479 -0.88542,0.48177 -1.53646,1.44531 -0.63802,0.95052 -1.0026,2.36979 -0.36459,1.41927 -0.36459,3.28125 0,1.86198 0.36459,3.34636 0.36458,1.47135 1.02864,2.5 0.66407,1.02864 1.58855,1.57552 0.92447,0.54687 2.04427,0.54687 1.05468,0 1.9401,-0.49479 0.89844,-0.50781 1.53646,-1.47135 0.63802,-0.97657 0.98958,-2.39584 0.36459,-1.43229 0.36459,-3.29427 z m 2.68229,-0.49479 q 0,1.51042 -0.28646,2.85156 -0.27344,1.34115 -0.79427,2.47396 -0.50781,1.11979 -1.23698,2.03125 -0.71615,0.89844 -1.60156,1.52344 -0.88542,0.625 -1.91407,0.96354 -1.02864,0.32552 -2.13541,0.32552 -1.64063,0 -2.98177,-0.70312 -1.32813,-0.70313 -2.27865,-1.96615 -0.95052,-1.26302 -1.47135,-2.99479 -0.50782,-1.73177 -0.50782,-3.78906 0,-2.29167 0.625,-4.15365 0.625,-1.875 1.69271,-3.20313 1.08073,-1.32812 2.52604,-2.05729 1.44532,-0.72916 3.09896,-0.72916 1.62761,0 2.96875,0.70312 1.34115,0.70313 2.29167,1.95313 0.96354,1.25 1.48437,2.98177 0.52084,1.73177 0.52084,3.78906 z"
           style="font-style:normal;font-variant:normal;font-weight:normal;font-stretch:normal;font-size:26.66666794px;font-family:'Proza Libre';-inkscape-font-specification:'Proza Libre, Normal';font-variant-ligatures:normal;font-variant-caps:normal;font-variant-numeric:normal;font-feature-settings:normal;text-align:start;writing-mode:lr-tb;text-anchor:start;fill:#004477;fill-opacity:1"
           id="path1355-2"
           inkscape:connector-curvature="0" />
      </g>
    </g>
  </g>
  <g
     inkscape:label="internet"
     inkscape:groupmode="layer"
     id="layer1"
     transform="translate(-0.77642869,-186.76666)">
    <path
       style="fill:none;stroke:#000000;stroke-width:0.69999999;stroke-linecap:butt;stroke-linejoin:miter;stroke-miterlimit:4;stroke-dasharray:none;stroke-opacity:1;marker-end:url(#marker4010)"
       d="m 28.215443,232.09871 69.78385,0.13225"
       id="path3162"
       inkscape:connector-curvature="0"
       sodipodi:nodetypes="cc" />
    <path
       style="display:inline;fill:none;stroke:#004477;stroke-width:1.5;stroke-linecap:butt;stroke-linejoin:miter;stroke-miterlimit:4;stroke-dasharray:none;stroke-opacity:1"
       d="m 24.511276,228.00706 78.118224,0.0662"
       id="path3548"
       inkscape:connector-curvature="0"
       sodipodi:nodetypes="cc" />
  </g>
</svg>
